<?xml version="1.0" encoding="utf-8"?>
<!-- Generator: Adobe Illustrator 14.0.0, SVG Export Plug-In . SVG Version: 6.00 Build 43363)  -->
<!DOCTYPE svg PUBLIC "-//W3C//DTD SVG 1.1//EN" "http://www.w3.org/Graphics/SVG/1.1/DTD/svg11.dtd">
<svg version="1.1" id="Layer_1" xmlns="http://www.w3.org/2000/svg" xmlns:xlink="http://www.w3.org/1999/xlink" x="0px" y="0px"
	 width="1280px" height="720px" viewBox="0 0 1280 720" enable-background="new 0 0 1280 720" xml:space="preserve">
<rect fill="#2C3238" width="1280" height="720"/>
<g>
	<g>
		<linearGradient id="SVGID_1_" gradientUnits="userSpaceOnUse" x1="545.0864" y1="489.623" x2="606.1919" y2="489.623">
			<stop  offset="0" style="stop-color:#FFFFFF"/>
			<stop  offset="1" style="stop-color:#D0D2D3"/>
		</linearGradient>
		<path fill="url(#SVGID_1_)" d="M560.927,515.72c0.128,1.287,0.386,2.285,0.771,2.992c0.386,0.707,0.82,1.238,1.303,1.592
			c0.482,0.354,0.972,0.611,1.471,0.771c0.499,0.16,0.957,0.346,1.375,0.555c0.417,0.209,0.747,0.506,0.989,0.893
			c0.241,0.385,0.344,0.98,0.312,1.785h-22.044c-0.065-0.869,0.041-1.496,0.313-1.881c0.272-0.387,0.644-0.686,1.11-0.893
			c0.466-0.209,0.972-0.402,1.519-0.58c0.547-0.176,1.069-0.506,1.568-0.988c0.498-0.482,0.916-1.191,1.254-2.123
			c0.337-0.932,0.522-2.25,0.555-3.955h0.048v-49.64h-0.048c-0.097-1.445-0.322-2.571-0.675-3.375
			c-0.355-0.805-0.765-1.407-1.231-1.81c-0.466-0.401-0.965-0.69-1.495-0.867c-0.531-0.177-1.013-0.362-1.448-0.555
			c-0.434-0.193-0.788-0.467-1.061-0.82c-0.272-0.354-0.393-0.917-0.361-1.688c0-0.064,0-0.12,0-0.17
			c0-0.047,0.112-0.071,0.337-0.071h21.418c0.16,0,0.248,0.031,0.265,0.097c0.016,0.064,0.023,0.128,0.023,0.192
			c0,0.74-0.128,1.287-0.386,1.641c-0.258,0.354-0.603,0.627-1.037,0.82c-0.435,0.192-0.901,0.369-1.399,0.53
			c-0.5,0.161-0.982,0.435-1.447,0.82c-0.466,0.385-0.885,0.956-1.254,1.712c-0.37,0.756-0.603,1.81-0.699,3.16h-0.048V515.72z
			 M599.807,514.948c0.097,1.447,0.32,2.572,0.675,3.377s0.765,1.408,1.23,1.809c0.466,0.404,0.965,0.691,1.495,0.869
			c0.53,0.176,1.014,0.361,1.447,0.555c0.435,0.193,0.788,0.475,1.061,0.844c0.273,0.371,0.41,0.941,0.41,1.713
			c0,0.031-0.007,0.08-0.023,0.145s-0.138,0.096-0.361,0.096c-3.409,0-6.834,0-10.275,0s-7.156-0.016-11.143-0.047
			c-0.161,0-0.25-0.033-0.265-0.096c-0.017-0.066-0.041-0.131-0.073-0.195c0-0.738,0.137-1.285,0.41-1.639
			c0.273-0.354,0.619-0.627,1.037-0.82c0.417-0.193,0.885-0.369,1.399-0.531c0.514-0.16,1.004-0.434,1.471-0.82
			s0.885-0.957,1.254-1.711c0.369-0.758,0.619-1.809,0.748-3.16v-23.493H564.4c-0.708,0-1.085-0.201-1.133-0.602
			c-0.048-0.404,0.152-0.91,0.603-1.521c0.45-0.611,1.102-1.27,1.954-1.977c0.852-0.707,1.849-1.377,2.991-2.002
			c1.141-0.627,2.395-1.143,3.762-1.545c1.367-0.402,2.757-0.604,4.172-0.604c1.544,0,2.79,0,3.739,0s1.729,0,2.34,0
			c0.61,0,1.101-0.008,1.47-0.023c0.37-0.018,0.74-0.031,1.11-0.047c0.369-0.018,0.796-0.033,1.278-0.049
			c0.482-0.018,1.141-0.041,1.979-0.072c0.643-0.033,1.077-0.217,1.302-0.557c0.224-0.336,0.354-0.617,0.387-0.844l-0.049-18.425
			c-0.162-1.287-0.427-2.284-0.796-2.991c-0.37-0.707-0.796-1.247-1.278-1.617c-0.482-0.37-0.982-0.627-1.496-0.771
			c-0.514-0.146-0.973-0.322-1.375-0.53c-0.402-0.211-0.732-0.499-0.989-0.868c-0.258-0.37-0.354-0.974-0.29-1.81l22.093,0.049
			c0.064,0.867-0.049,1.494-0.338,1.881c-0.289,0.386-0.668,0.674-1.133,0.868c-0.467,0.193-0.974,0.377-1.521,0.554
			s-1.068,0.5-1.567,0.965c-0.499,0.467-0.916,1.167-1.254,2.099c-0.338,0.934-0.523,2.252-0.555,3.956V514.948z"/>
	</g>
	<g>
		<linearGradient id="SVGID_2_" gradientUnits="userSpaceOnUse" x1="677.4297" y1="509.0273" x2="732.7426" y2="453.7145">
			<stop  offset="0" style="stop-color:#FFFFFF"/>
			<stop  offset="1" style="stop-color:#D0D2D3"/>
		</linearGradient>
		<path fill="url(#SVGID_2_)" d="M734.411,455.47c0.434,0.226,0.587,0.548,0.459,0.965c-0.129,0.419-0.499,0.924-1.109,1.521
			c-0.611,0.595-1.32,1.245-2.123,1.953c-1.447,1.222-2.99,2.171-4.631,2.846s-3.217,0.981-4.729,0.918h0.05h-14.279v50.698
			c0.065,1.607,0.266,2.846,0.603,3.715c0.338,0.867,0.74,1.527,1.208,1.979c0.464,0.449,0.964,0.762,1.494,0.939
			c0.531,0.176,1.013,0.369,1.446,0.578c0.436,0.211,0.788,0.5,1.062,0.867c0.272,0.371,0.379,0.99,0.315,1.859h-9.456h-5.596
			c-0.74,0-1.464,0-2.171,0s-1.359-0.01-1.953-0.025c-0.596-0.016-1.104-0.023-1.521-0.023c-0.418,0-0.691,0-0.819,0
			c-0.066-0.869,0.041-1.486,0.314-1.857c0.271-0.369,0.626-0.65,1.061-0.844c0.434-0.193,0.908-0.379,1.422-0.555
			c0.514-0.178,1.014-0.482,1.496-0.916s0.899-1.07,1.254-1.906c0.354-0.836,0.563-2.041,0.627-3.617v-50.892h-7.525h-15.772
			c-1.319,0-2.202-0.113-2.654-0.339c-0.449-0.225-0.603-0.546-0.458-0.964c0.145-0.419,0.523-0.916,1.134-1.496
			c0.611-0.578,1.335-1.238,2.171-1.979c1.446-1.222,2.998-2.17,4.654-2.846s3.225-0.98,4.704-0.916c0.578,0,1.688,0,3.329,0
			c1.639,0,3.601,0,5.885,0c2.282,0,4.799,0,7.549,0s5.522,0,8.32,0h21.708C733.133,455.133,733.978,455.245,734.411,455.47z"/>
	</g>
	<g>
		<linearGradient id="SVGID_3_" gradientUnits="userSpaceOnUse" x1="614.4233" y1="489.5566" x2="671.4414" y2="489.5566">
			<stop  offset="0" style="stop-color:#FFFFFF"/>
			<stop  offset="1" style="stop-color:#D0D2D3"/>
		</linearGradient>
		<path fill="url(#SVGID_3_)" d="M667.872,472.496c1.447,2.51,2.404,5.26,2.869,8.252c0.467,2.99,0.7,6.061,0.7,9.213
			c0,6.237-1.512,11.931-4.535,17.075c-2.99,5.115-7.268,9.312-12.83,12.592c-2.605,1.512-5.709,2.654-9.311,3.426
			c-0.933,0.193-1.978,0.369-3.136,0.529c-1.158,0.16-2.276,0.297-3.353,0.41s-2.025,0.201-2.847,0.266
			c-0.818,0.064-1.357,0.096-1.615,0.096c-0.45,0-0.9-0.006-1.352-0.023c-0.449-0.016-0.674-0.25-0.674-0.699
			c0-0.289,0.145-0.773,0.434-1.447c0.289-0.676,0.748-1.398,1.375-2.172c0.628-0.77,1.431-1.512,2.413-2.219
			c0.979-0.707,2.176-1.238,3.593-1.592c1.801-0.643,3.321-1.156,4.559-1.543c1.238-0.385,2.371-0.805,3.4-1.254
			s2.033-1.014,3.015-1.688c0.98-0.676,2.114-1.609,3.401-2.799c2.604-2.412,4.613-5.209,6.029-8.393
			c1.415-3.186,2.122-6.739,2.122-10.661c0-1.996-0.104-3.947-0.313-5.863c-0.209-1.912-0.563-3.73-1.061-5.449
			c-0.5-1.721-1.182-3.33-2.051-4.824s-1.96-2.838-3.279-4.027c-1.094-1.094-2.524-2.1-4.293-3.016s-3.65-1.689-5.645-2.316
			c-1.995-0.627-4.004-1.116-6.031-1.471c-2.025-0.354-3.851-0.538-5.475-0.555c-1.624-0.016-2.951,0.16-3.979,0.531
			c-1.03,0.37-1.545,0.957-1.545,1.76l0.049,48.722h0.048v10.951h-14.133c0-0.645,0.12-1.125,0.361-1.449
			c0.241-0.32,0.538-0.57,0.892-0.746c0.355-0.178,0.741-0.305,1.159-0.387c0.417-0.08,0.812-0.201,1.181-0.361
			c0.37-0.16,0.692-0.395,0.966-0.699c0.272-0.305,0.458-0.764,0.555-1.375c0-1.865,0-4.115,0-6.752
			c0-2.639-0.009-5.492-0.024-8.564c-0.018-3.07-0.024-6.254-0.024-9.552c0-3.295,0-6.535,0-9.719s-0.008-6.217-0.023-9.094
			c-0.017-2.879-0.024-5.443-0.024-7.693c0-2.252,0.008-4.077,0.024-5.476c0.016-1.397,0.023-2.211,0.023-2.436
			c0.032-1.157,0.596-2.099,1.688-2.823c1.093-0.723,2.468-1.277,4.124-1.663s3.497-0.619,5.523-0.699
			c2.027-0.08,4.004-0.08,5.935,0c1.929,0.08,3.714,0.218,5.354,0.41c1.641,0.192,2.895,0.401,3.763,0.628
			c1.479,0.449,3.2,1.091,5.161,1.929c1.961,0.835,3.963,1.929,6.006,3.279c2.043,1.352,4.02,2.967,5.934,4.849
			C664.888,467.795,666.521,469.99,667.872,472.496z"/>
	</g>
</g>
<g>
	<linearGradient id="SVGID_4_" gradientUnits="userSpaceOnUse" x1="505.0664" y1="544.8008" x2="510.741" y2="544.8008">
		<stop  offset="0" style="stop-color:#FFFFFF"/>
		<stop  offset="1" style="stop-color:#D0D2D3"/>
	</linearGradient>
	<path fill="url(#SVGID_4_)" d="M509.132,551.499c0.033,0.33,0.099,0.584,0.198,0.766s0.21,0.318,0.334,0.41
		c0.124,0.09,0.25,0.156,0.378,0.197c0.127,0.041,0.246,0.088,0.353,0.143c0.107,0.055,0.192,0.129,0.253,0.229
		c0.062,0.1,0.089,0.252,0.081,0.457h-5.658c-0.017-0.221,0.011-0.383,0.08-0.48c0.07-0.1,0.165-0.178,0.286-0.23
		c0.119-0.053,0.249-0.102,0.39-0.148c0.14-0.045,0.274-0.131,0.402-0.254c0.127-0.123,0.235-0.305,0.322-0.543
		c0.086-0.242,0.134-0.578,0.143-1.018h0.012v-12.738h-0.012c-0.025-0.371-0.083-0.66-0.174-0.867
		c-0.091-0.205-0.196-0.359-0.315-0.463c-0.12-0.104-0.248-0.178-0.384-0.223c-0.135-0.045-0.259-0.092-0.371-0.143
		c-0.111-0.049-0.202-0.121-0.272-0.211c-0.07-0.09-0.101-0.234-0.092-0.432c0-0.018,0-0.033,0-0.045
		c0-0.014,0.028-0.018,0.086-0.018h5.497c0.041,0,0.063,0.008,0.068,0.023c0.004,0.018,0.006,0.033,0.006,0.051
		c0,0.189-0.033,0.33-0.099,0.42c-0.066,0.09-0.155,0.162-0.267,0.211c-0.111,0.051-0.231,0.096-0.358,0.135
		c-0.128,0.043-0.252,0.113-0.372,0.211c-0.12,0.1-0.228,0.246-0.322,0.439c-0.096,0.195-0.155,0.465-0.18,0.812h-0.013V551.499z
		 M519.11,551.3c0.024,0.371,0.082,0.66,0.173,0.865c0.091,0.209,0.196,0.363,0.316,0.465c0.119,0.104,0.248,0.178,0.384,0.223
		c0.137,0.047,0.26,0.094,0.371,0.143c0.112,0.051,0.202,0.123,0.272,0.217c0.07,0.096,0.105,0.24,0.105,0.439
		c0,0.01-0.002,0.021-0.007,0.037c-0.003,0.018-0.035,0.025-0.092,0.025c-0.875,0-1.754,0-2.637,0c-0.883,0-1.836-0.004-2.859-0.014
		c-0.042,0-0.064-0.006-0.068-0.023c-0.005-0.016-0.011-0.033-0.019-0.049c0-0.191,0.035-0.33,0.104-0.422
		c0.07-0.09,0.159-0.16,0.267-0.211c0.107-0.049,0.227-0.094,0.359-0.137c0.132-0.039,0.258-0.109,0.378-0.209
		c0.119-0.1,0.227-0.246,0.322-0.439c0.094-0.193,0.159-0.465,0.192-0.811v-6.029h-6.648c-0.182,0-0.278-0.053-0.292-0.154
		c-0.012-0.104,0.04-0.234,0.155-0.391c0.115-0.158,0.282-0.326,0.501-0.508c0.218-0.182,0.474-0.354,0.768-0.514
		c0.292-0.162,0.614-0.291,0.966-0.396c0.35-0.104,0.708-0.154,1.07-0.154c0.396,0,0.716,0,0.96,0c0.243,0,0.443,0,0.6,0
		s0.283-0.002,0.377-0.008c0.095-0.002,0.19-0.006,0.286-0.01c0.094-0.004,0.204-0.01,0.328-0.014s0.293-0.01,0.508-0.02
		c0.165-0.006,0.276-0.055,0.334-0.141c0.057-0.088,0.091-0.16,0.099-0.217l-0.012-4.73c-0.042-0.33-0.11-0.586-0.205-0.768
		s-0.204-0.318-0.328-0.414c-0.124-0.094-0.251-0.16-0.383-0.197c-0.132-0.037-0.25-0.084-0.354-0.137
		c-0.103-0.053-0.188-0.129-0.253-0.223s-0.091-0.25-0.074-0.465l5.67,0.012c0.017,0.225-0.012,0.385-0.086,0.484
		c-0.075,0.1-0.171,0.174-0.291,0.223c-0.121,0.049-0.25,0.098-0.391,0.143c-0.14,0.045-0.274,0.127-0.402,0.248
		c-0.128,0.119-0.236,0.299-0.322,0.537c-0.087,0.24-0.135,0.578-0.143,1.016V551.3z"/>
	<linearGradient id="SVGID_5_" gradientUnits="userSpaceOnUse" x1="521.4248" y1="547.6602" x2="534.7334" y2="547.6602">
		<stop  offset="0" style="stop-color:#FFFFFF"/>
		<stop  offset="1" style="stop-color:#D0D2D3"/>
	</linearGradient>
	<path fill="url(#SVGID_5_)" d="M533.669,552.858c0.066,0.066,0.142,0.117,0.229,0.148c0.086,0.033,0.177,0.062,0.272,0.082
		c0.094,0.02,0.183,0.049,0.266,0.086c0.083,0.037,0.15,0.092,0.204,0.162c0.053,0.068,0.085,0.176,0.093,0.314
		c0,0.033-0.017,0.049-0.049,0.049h-3.318h-0.013v-6.016c0-1.246-0.354-2.27-1.064-3.068c-0.718-0.787-1.646-1.178-2.785-1.178
		c-1.123,0-2.051,0.389-2.786,1.164c-0.727,0.791-1.089,1.791-1.089,2.996c0,1.246,0.375,2.27,1.126,3.07
		c0.743,0.791,1.692,1.188,2.847,1.188c0.537,0,1.048-0.09,1.535-0.271c0.248-0.092,0.495-0.205,0.743-0.342
		c0.247-0.135,0.499-0.299,0.755-0.488v2.328c-0.512,0.279-1.032,0.486-1.56,0.617c-0.272,0.066-0.553,0.115-0.842,0.148
		c-0.289,0.033-0.582,0.051-0.879,0.051c-0.569,0-1.139-0.086-1.708-0.26c-0.562-0.182-1.073-0.43-1.535-0.742
		c-0.867-0.604-1.531-1.35-1.994-2.242c-0.462-0.906-0.693-1.91-0.693-3.008c0-1.799,0.57-3.289,1.709-4.469
		c1.139-1.172,2.587-1.758,4.345-1.758c1.164,0,2.224,0.289,3.182,0.867c0.479,0.287,0.905,0.643,1.282,1.062
		c0.375,0.422,0.683,0.869,0.922,1.338c0.115,0.23,0.219,0.475,0.31,0.725c0.091,0.252,0.161,0.51,0.21,0.773
		c0.099,0.562,0.148,1.379,0.148,2.451v3.924C533.557,552.694,533.603,552.794,533.669,552.858z"/>
	<linearGradient id="SVGID_6_" gradientUnits="userSpaceOnUse" x1="535.335" y1="547.5957" x2="545.2256" y2="547.5957">
		<stop  offset="0" style="stop-color:#FFFFFF"/>
		<stop  offset="1" style="stop-color:#D0D2D3"/>
	</linearGradient>
	<path fill="url(#SVGID_6_)" d="M540.28,541.892c0.627-0.248,1.199-0.379,1.714-0.396c0.516-0.016,0.974,0.035,1.375,0.154
		c0.399,0.119,0.738,0.281,1.015,0.49c0.276,0.205,0.485,0.41,0.625,0.611c0.14,0.203,0.212,0.379,0.217,0.527
		c0.004,0.148-0.068,0.221-0.217,0.221c-0.207,0.01-0.398,0.014-0.575,0.014c-0.178,0-0.333,0-0.464,0h-0.434
		c-0.372,0-0.735,0.016-1.089,0.049c-0.355,0.033-0.692,0.09-1.009,0.168c-0.318,0.08-0.607,0.186-0.866,0.322
		c-0.261,0.135-0.478,0.307-0.65,0.514c-0.314,0.371-0.557,0.838-0.73,1.398s-0.26,1.242-0.26,2.043v3.641
		c0.033,0.312,0.09,0.553,0.173,0.725c0.083,0.168,0.18,0.295,0.291,0.383c0.112,0.086,0.225,0.148,0.341,0.186
		s0.221,0.08,0.316,0.129c0.094,0.051,0.168,0.119,0.223,0.211c0.053,0.09,0.076,0.232,0.067,0.42h-5.001
		c-0.017-0.197,0.006-0.342,0.068-0.432c0.062-0.092,0.143-0.162,0.241-0.211c0.099-0.051,0.208-0.092,0.328-0.131
		c0.12-0.035,0.236-0.104,0.347-0.203c0.112-0.1,0.206-0.244,0.285-0.434c0.078-0.189,0.13-0.461,0.154-0.818v-9.828h1.993v1.783
		C539.137,542.708,539.644,542.196,540.28,541.892z"/>
	<linearGradient id="SVGID_7_" gradientUnits="userSpaceOnUse" x1="545.4424" y1="545.1094" x2="557.5869" y2="545.1094">
		<stop  offset="0" style="stop-color:#FFFFFF"/>
		<stop  offset="1" style="stop-color:#D0D2D3"/>
	</linearGradient>
	<path fill="url(#SVGID_7_)" d="M546.136,544.8c0.462-0.883,1.135-1.633,2.018-2.252c0.454-0.307,0.965-0.553,1.535-0.744
		c0.569-0.172,1.143-0.258,1.721-0.258c0.611,0,1.18,0.064,1.708,0.197c0.544,0.139,1.065,0.35,1.56,0.631
		c-0.173,0.297-0.4,0.549-0.681,0.756c-0.239,0.172-0.553,0.316-0.941,0.432c-0.388,0.117-0.867,0.125-1.436,0.025
		c-0.272-0.033-0.541-0.025-0.805,0.02s-0.516,0.119-0.755,0.223c-0.239,0.102-0.47,0.232-0.693,0.391
		c-0.223,0.154-0.425,0.33-0.606,0.518c-0.734,0.77-1.102,1.768-1.102,2.998c0,1.27,0.359,2.301,1.077,3.094
		c0.718,0.775,1.659,1.164,2.822,1.164c1.131,0,2.055-0.389,2.773-1.164c0.709-0.783,1.064-1.807,1.064-3.07v-10.461
		c-0.041-0.182-0.124-0.301-0.248-0.359c-0.124-0.059-0.254-0.104-0.39-0.137c-0.137-0.031-0.261-0.084-0.372-0.154
		c-0.112-0.068-0.171-0.209-0.18-0.414c0-0.033,0.017-0.051,0.05-0.051h3.33v1.623v9c0,0.545-0.015,1.02-0.044,1.424
		s-0.068,0.744-0.117,1.016c-0.099,0.537-0.268,1.031-0.508,1.484c-0.52,1.033-1.258,1.838-2.216,2.414
		c-0.966,0.596-2.034,0.893-3.207,0.893c-1.75,0-3.194-0.596-4.333-1.783c-1.147-1.189-1.721-2.686-1.721-4.494
		C545.442,546.687,545.673,545.7,546.136,544.8z"/>
	<linearGradient id="SVGID_8_" gradientUnits="userSpaceOnUse" x1="558.8647" y1="547.7764" x2="578.2983" y2="547.7764">
		<stop  offset="0" style="stop-color:#FFFFFF"/>
		<stop  offset="1" style="stop-color:#D0D2D3"/>
	</linearGradient>
	<path fill="url(#SVGID_8_)" d="M578.211,541.567c0.025,0,0.045,0.01,0.062,0.027c0.033,0.033,0.033,0.086,0,0.16
		c-0.05,0.115-0.124,0.295-0.223,0.539c-0.1,0.244-0.231,0.6-0.396,1.07l-2.984,8.318c-0.264,0.834-0.553,1.412-0.866,1.734
		c-0.314,0.338-0.71,0.508-1.189,0.508c-0.487,0-0.887-0.17-1.201-0.508c-0.148-0.166-0.272-0.389-0.371-0.668
		c-0.1-0.281-0.215-0.629-0.347-1.041h-0.013l-2.08-5.521l-1.981,5.57c-0.264,0.826-0.553,1.4-0.867,1.723
		c-0.313,0.336-0.714,0.506-1.201,0.506c-0.479,0-0.875-0.164-1.188-0.494c-0.157-0.166-0.283-0.391-0.377-0.676
		c-0.096-0.285-0.209-0.633-0.341-1.045l-0.013,0.012l-3.095-8.256c-0.182-0.463-0.322-0.816-0.421-1.059
		c-0.099-0.244-0.173-0.424-0.223-0.539c-0.041-0.074-0.045-0.129-0.012-0.162c0.017-0.018,0.041-0.023,0.074-0.023
		c0.396-0.016,0.784,0.053,1.164,0.209c0.157,0.066,0.322,0.154,0.495,0.268c0.174,0.111,0.341,0.252,0.501,0.426
		c0.162,0.174,0.316,0.381,0.465,0.619c0.148,0.24,0.281,0.521,0.396,0.842l2.612,6.809l2.513-6.857
		c0.066-0.189,0.136-0.361,0.21-0.514s0.153-0.299,0.235-0.439c0.272-0.33,0.549-0.537,0.829-0.619
		c0.124-0.033,0.252-0.039,0.384-0.018c0.132,0.02,0.269,0.086,0.409,0.197s0.283,0.275,0.427,0.496
		c0.144,0.219,0.287,0.508,0.427,0.871l2.625,6.822l2.501-6.859c0.107-0.32,0.235-0.604,0.383-0.848
		c0.149-0.242,0.304-0.451,0.464-0.625c0.161-0.174,0.328-0.316,0.502-0.434c0.173-0.115,0.342-0.211,0.507-0.285
		C577.399,541.64,577.799,541.562,578.211,541.567z"/>
	<linearGradient id="SVGID_9_" gradientUnits="userSpaceOnUse" x1="579.251" y1="547.6602" x2="592.5596" y2="547.6602">
		<stop  offset="0" style="stop-color:#FFFFFF"/>
		<stop  offset="1" style="stop-color:#D0D2D3"/>
	</linearGradient>
	<path fill="url(#SVGID_9_)" d="M591.495,552.858c0.065,0.066,0.143,0.117,0.229,0.148c0.086,0.033,0.177,0.062,0.272,0.082
		c0.094,0.02,0.183,0.049,0.266,0.086s0.15,0.092,0.205,0.162c0.052,0.068,0.084,0.176,0.092,0.314c0,0.033-0.017,0.049-0.05,0.049
		h-3.317h-0.013v-6.016c0-1.246-0.354-2.27-1.064-3.068c-0.718-0.787-1.646-1.178-2.786-1.178c-1.123,0-2.051,0.389-2.786,1.164
		c-0.727,0.791-1.089,1.791-1.089,2.996c0,1.246,0.375,2.27,1.126,3.07c0.743,0.791,1.692,1.188,2.847,1.188
		c0.537,0,1.048-0.09,1.536-0.271c0.248-0.092,0.495-0.205,0.743-0.342c0.247-0.135,0.499-0.299,0.755-0.488v2.328
		c-0.512,0.279-1.031,0.486-1.56,0.617c-0.272,0.066-0.553,0.115-0.842,0.148s-0.582,0.051-0.879,0.051
		c-0.569,0-1.138-0.086-1.708-0.26c-0.562-0.182-1.074-0.43-1.536-0.742c-0.867-0.604-1.531-1.35-1.994-2.242
		c-0.462-0.906-0.693-1.91-0.693-3.008c0-1.799,0.57-3.289,1.709-4.469c1.139-1.172,2.587-1.758,4.346-1.758
		c1.164,0,2.224,0.289,3.182,0.867c0.478,0.287,0.905,0.643,1.281,1.062c0.375,0.422,0.683,0.869,0.922,1.338
		c0.115,0.23,0.219,0.475,0.31,0.725c0.091,0.252,0.161,0.51,0.21,0.773c0.1,0.562,0.149,1.379,0.149,2.451v3.924
		C591.384,552.694,591.429,552.794,591.495,552.858z"/>
	<linearGradient id="SVGID_10_" gradientUnits="userSpaceOnUse" x1="593.1611" y1="547.5957" x2="603.0527" y2="547.5957">
		<stop  offset="0" style="stop-color:#FFFFFF"/>
		<stop  offset="1" style="stop-color:#D0D2D3"/>
	</linearGradient>
	<path fill="url(#SVGID_10_)" d="M598.105,541.892c0.628-0.248,1.199-0.379,1.715-0.396c0.516-0.016,0.974,0.035,1.375,0.154
		c0.399,0.119,0.738,0.281,1.015,0.49c0.276,0.205,0.485,0.41,0.625,0.611c0.141,0.203,0.213,0.379,0.218,0.527
		c0.003,0.148-0.069,0.221-0.218,0.221c-0.206,0.01-0.398,0.014-0.575,0.014c-0.178,0-0.333,0-0.465,0h-0.433
		c-0.372,0-0.735,0.016-1.09,0.049s-0.691,0.09-1.009,0.168c-0.317,0.08-0.606,0.186-0.866,0.322
		c-0.261,0.135-0.478,0.307-0.65,0.514c-0.313,0.371-0.557,0.838-0.73,1.398s-0.26,1.242-0.26,2.043v3.641
		c0.033,0.312,0.091,0.553,0.173,0.725c0.082,0.168,0.18,0.295,0.291,0.383c0.111,0.086,0.225,0.148,0.341,0.186
		c0.115,0.037,0.221,0.08,0.315,0.129c0.095,0.051,0.169,0.119,0.224,0.211c0.053,0.09,0.075,0.232,0.067,0.42h-5.002
		c-0.017-0.197,0.007-0.342,0.068-0.432c0.062-0.092,0.143-0.162,0.241-0.211c0.1-0.051,0.208-0.092,0.328-0.131
		c0.12-0.035,0.235-0.104,0.347-0.203c0.112-0.1,0.207-0.244,0.285-0.434s0.13-0.461,0.155-0.818v-9.828h1.992v1.783
		C596.963,542.708,597.471,542.196,598.105,541.892z"/>
	<linearGradient id="SVGID_11_" gradientUnits="userSpaceOnUse" x1="603.1699" y1="547.7412" x2="615.2402" y2="547.7412">
		<stop  offset="0" style="stop-color:#FFFFFF"/>
		<stop  offset="1" style="stop-color:#D0D2D3"/>
	</linearGradient>
	<path fill="url(#SVGID_11_)" d="M612.888,549.776c0.38-0.346,0.715-0.596,1.009-0.748c0.293-0.152,0.539-0.254,0.736-0.303
		c0.231-0.059,0.434-0.07,0.607-0.039c-0.074,0.43-0.17,0.824-0.285,1.184s-0.254,0.693-0.415,1.002
		c-0.161,0.311-0.346,0.6-0.558,0.873c-0.209,0.271-0.451,0.533-0.724,0.781c-1.098,0.998-2.426,1.498-3.986,1.498
		c-0.536,0-1.064-0.076-1.584-0.225c-0.529-0.139-1.02-0.35-1.474-0.631c-0.949-0.578-1.695-1.35-2.24-2.314
		c-0.537-0.957-0.805-2.002-0.805-3.133c0-0.42,0.038-0.828,0.116-1.225c0.079-0.396,0.192-0.785,0.341-1.166
		c0.306-0.748,0.751-1.43,1.338-2.041c0.586-0.594,1.246-1.049,1.98-1.361c0.768-0.314,1.551-0.471,2.352-0.471
		c1.222,0,2.315,0.32,3.281,0.965c0.966,0.652,1.746,1.588,2.34,2.811l-7.91,4.383c-0.083-0.363-0.079-0.727,0.012-1.09
		c0.074-0.312,0.236-0.646,0.489-1.002c0.251-0.355,0.662-0.686,1.231-0.99c0.041-0.025,0.117-0.07,0.229-0.137
		c0.111-0.066,0.248-0.145,0.408-0.236c0.161-0.09,0.337-0.189,0.526-0.297s0.38-0.215,0.569-0.322
		c0.454-0.256,0.949-0.535,1.485-0.84c-0.355-0.396-0.76-0.697-1.213-0.904c-0.438-0.207-0.929-0.311-1.474-0.311
		c-1.081,0-1.993,0.404-2.735,1.215c-0.743,0.809-1.114,1.807-1.114,2.996c0,1.188,0.371,2.182,1.114,2.982
		c0.742,0.818,1.654,1.227,2.735,1.227c1.031,0,1.891-0.34,2.575-1.016c0.231-0.197,0.415-0.391,0.551-0.576
		C612.535,550.13,612.697,549.95,612.888,549.776z"/>
	<linearGradient id="SVGID_12_" gradientUnits="userSpaceOnUse" x1="623.3115" y1="544.7832" x2="637.9443" y2="544.7832">
		<stop  offset="0" style="stop-color:#FFFFFF"/>
		<stop  offset="1" style="stop-color:#D0D2D3"/>
	</linearGradient>
	<path fill="url(#SVGID_12_)" d="M637.028,540.405c0.372,0.645,0.617,1.35,0.737,2.117c0.119,0.768,0.179,1.555,0.179,2.363
		c0,1.602-0.388,3.062-1.163,4.385c-0.769,1.311-1.865,2.389-3.294,3.23c-0.668,0.387-1.464,0.682-2.389,0.879
		c-0.24,0.051-0.508,0.096-0.805,0.135c-0.297,0.043-0.584,0.078-0.859,0.105c-0.278,0.029-0.521,0.053-0.731,0.068
		c-0.21,0.018-0.35,0.025-0.415,0.025c-0.116,0-0.23-0.002-0.347-0.006c-0.115-0.004-0.173-0.064-0.173-0.18
		c0-0.076,0.036-0.197,0.111-0.371c0.073-0.174,0.191-0.359,0.352-0.557c0.163-0.199,0.368-0.389,0.62-0.57
		c0.251-0.182,0.559-0.318,0.922-0.41c0.462-0.164,0.852-0.297,1.17-0.395c0.318-0.1,0.608-0.207,0.873-0.32
		c0.264-0.117,0.522-0.262,0.773-0.436c0.252-0.172,0.543-0.412,0.873-0.717c0.668-0.619,1.186-1.338,1.548-2.154
		c0.363-0.818,0.545-1.729,0.545-2.736c0-0.512-0.028-1.014-0.08-1.504c-0.055-0.49-0.146-0.957-0.273-1.4
		c-0.127-0.439-0.303-0.854-0.526-1.238c-0.223-0.383-0.503-0.727-0.841-1.033c-0.281-0.281-0.648-0.537-1.102-0.773
		c-0.455-0.234-0.938-0.434-1.449-0.594s-1.027-0.287-1.548-0.377c-0.52-0.092-0.988-0.139-1.405-0.143s-0.758,0.041-1.021,0.137
		s-0.396,0.244-0.396,0.451l0.014,12.504h0.013v2.809h-3.628c0-0.164,0.031-0.287,0.093-0.369s0.139-0.146,0.229-0.193
		c0.092-0.045,0.19-0.078,0.298-0.098c0.107-0.021,0.207-0.053,0.304-0.094c0.095-0.041,0.177-0.102,0.248-0.18
		c0.068-0.076,0.116-0.195,0.142-0.354c0-0.479,0-1.057,0-1.732c0-0.678-0.003-1.408-0.007-2.197s-0.005-1.604-0.005-2.451
		c0-0.846,0-1.678,0-2.494c0-0.818-0.003-1.596-0.007-2.334c-0.006-0.74-0.007-1.396-0.007-1.975s0.001-1.045,0.007-1.406
		c0.004-0.357,0.007-0.566,0.007-0.625c0.007-0.297,0.151-0.537,0.433-0.723c0.28-0.188,0.633-0.328,1.057-0.428
		c0.426-0.098,0.899-0.158,1.419-0.18c0.521-0.02,1.027-0.02,1.522,0c0.495,0.021,0.954,0.055,1.374,0.104
		c0.422,0.051,0.743,0.105,0.966,0.162c0.38,0.117,0.822,0.281,1.324,0.496c0.505,0.215,1.018,0.494,1.542,0.842
		c0.523,0.346,1.03,0.762,1.523,1.244C636.264,539.198,636.682,539.763,637.028,540.405z"/>
	<linearGradient id="SVGID_13_" gradientUnits="userSpaceOnUse" x1="639.6777" y1="547.7412" x2="651.748" y2="547.7412">
		<stop  offset="0" style="stop-color:#FFFFFF"/>
		<stop  offset="1" style="stop-color:#D0D2D3"/>
	</linearGradient>
	<path fill="url(#SVGID_13_)" d="M649.396,549.776c0.379-0.346,0.717-0.596,1.009-0.748c0.293-0.152,0.539-0.254,0.737-0.303
		c0.231-0.059,0.433-0.07,0.606-0.039c-0.074,0.43-0.169,0.824-0.285,1.184c-0.115,0.359-0.254,0.693-0.415,1.002
		c-0.159,0.311-0.347,0.6-0.556,0.873c-0.211,0.271-0.453,0.533-0.725,0.781c-1.099,0.998-2.427,1.498-3.987,1.498
		c-0.535,0-1.063-0.076-1.584-0.225c-0.529-0.139-1.02-0.35-1.474-0.631c-0.948-0.578-1.696-1.35-2.24-2.314
		c-0.536-0.957-0.805-2.002-0.805-3.133c0-0.42,0.039-0.828,0.118-1.225c0.077-0.396,0.19-0.785,0.339-1.166
		c0.307-0.748,0.753-1.43,1.337-2.041c0.588-0.594,1.248-1.049,1.981-1.361c0.769-0.314,1.551-0.471,2.354-0.471
		c1.221,0,2.314,0.32,3.279,0.965c0.966,0.652,1.745,1.588,2.34,2.811l-7.91,4.383c-0.082-0.363-0.079-0.727,0.013-1.09
		c0.073-0.312,0.235-0.646,0.488-1.002c0.252-0.355,0.662-0.686,1.231-0.99c0.042-0.025,0.117-0.07,0.23-0.137
		c0.11-0.066,0.247-0.145,0.408-0.236c0.16-0.09,0.336-0.189,0.525-0.297c0.19-0.107,0.38-0.215,0.569-0.322
		c0.454-0.256,0.949-0.535,1.485-0.84c-0.354-0.396-0.759-0.697-1.213-0.904c-0.438-0.207-0.929-0.311-1.474-0.311
		c-1.08,0-1.992,0.404-2.735,1.215c-0.743,0.809-1.114,1.807-1.114,2.996c0,1.188,0.371,2.182,1.114,2.982
		c0.743,0.818,1.655,1.227,2.735,1.227c1.033,0,1.892-0.34,2.575-1.016c0.23-0.197,0.415-0.391,0.552-0.576
		S649.207,549.95,649.396,549.776z"/>
	<linearGradient id="SVGID_14_" gradientUnits="userSpaceOnUse" x1="653.9395" y1="545.9385" x2="660.0059" y2="545.9385">
		<stop  offset="0" style="stop-color:#FFFFFF"/>
		<stop  offset="1" style="stop-color:#D0D2D3"/>
	</linearGradient>
	<path fill="url(#SVGID_14_)" d="M659.721,550.778c0.024,0.01,0.037,0.021,0.037,0.039v2.871v0.012h-0.719c-0.09,0-0.176,0-0.259,0
		c-0.082,0-0.17-0.004-0.261-0.012h-0.024c-1.437-0.074-2.53-0.439-3.28-1.102c-0.852-0.742-1.275-1.863-1.275-3.367v-8.406v-0.049
		v-0.484c0.008-0.461,0.123-0.83,0.347-1.105c0.223-0.277,0.47-0.49,0.742-0.639c0.314-0.174,0.673-0.293,1.077-0.359v2.945v0.533
		v7.182c0,0.973,0.235,1.682,0.706,2.129c0.445,0.42,1.144,0.643,2.091,0.668c0.133-0.033,0.222-0.096,0.267-0.186
		c0.045-0.092,0.081-0.184,0.106-0.279c0.023-0.094,0.063-0.18,0.118-0.26C659.445,550.831,659.557,550.788,659.721,550.778z
		 M656.7,541.581h0.26c0.157,0.01,0.31,0.014,0.457,0.014H658c0.438,0.008,0.787,0.119,1.052,0.334
		c0.264,0.213,0.467,0.449,0.606,0.705c0.166,0.297,0.281,0.635,0.348,1.016h-2.811h-0.508L656.7,541.581z"/>
	<linearGradient id="SVGID_15_" gradientUnits="userSpaceOnUse" x1="661.4053" y1="547.7412" x2="673.4746" y2="547.7412">
		<stop  offset="0" style="stop-color:#FFFFFF"/>
		<stop  offset="1" style="stop-color:#D0D2D3"/>
	</linearGradient>
	<path fill="url(#SVGID_15_)" d="M671.123,549.776c0.379-0.346,0.715-0.596,1.009-0.748c0.292-0.152,0.538-0.254,0.735-0.303
		c0.231-0.059,0.434-0.07,0.607-0.039c-0.074,0.43-0.169,0.824-0.284,1.184c-0.116,0.359-0.255,0.693-0.415,1.002
		c-0.161,0.311-0.347,0.6-0.558,0.873c-0.21,0.271-0.451,0.533-0.724,0.781c-1.098,0.998-2.427,1.498-3.986,1.498
		c-0.536,0-1.065-0.076-1.585-0.225c-0.528-0.139-1.019-0.35-1.474-0.631c-0.947-0.578-1.695-1.35-2.24-2.314
		c-0.537-0.957-0.804-2.002-0.804-3.133c0-0.42,0.038-0.828,0.116-1.225c0.079-0.396,0.192-0.785,0.341-1.166
		c0.306-0.748,0.751-1.43,1.337-2.041c0.586-0.594,1.247-1.049,1.98-1.361c0.768-0.314,1.552-0.471,2.353-0.471
		c1.222,0,2.314,0.32,3.281,0.965c0.965,0.652,1.745,1.588,2.339,2.811l-7.91,4.383c-0.083-0.363-0.078-0.727,0.012-1.09
		c0.074-0.312,0.237-0.646,0.49-1.002c0.251-0.355,0.662-0.686,1.23-0.99c0.042-0.025,0.118-0.07,0.23-0.137
		c0.11-0.066,0.247-0.145,0.407-0.236c0.162-0.09,0.337-0.189,0.527-0.297c0.188-0.107,0.38-0.215,0.568-0.322
		c0.455-0.256,0.95-0.535,1.485-0.84c-0.354-0.396-0.759-0.697-1.212-0.904c-0.438-0.207-0.929-0.311-1.474-0.311
		c-1.081,0-1.992,0.404-2.736,1.215c-0.742,0.809-1.114,1.807-1.114,2.996c0,1.188,0.372,2.182,1.114,2.982
		c0.744,0.818,1.655,1.227,2.736,1.227c1.031,0,1.89-0.34,2.574-1.016c0.231-0.197,0.415-0.391,0.552-0.576
		S670.933,549.95,671.123,549.776z"/>
	<linearGradient id="SVGID_16_" gradientUnits="userSpaceOnUse" x1="675.1084" y1="547.6904" x2="683.2793" y2="547.6904">
		<stop  offset="0" style="stop-color:#FFFFFF"/>
		<stop  offset="1" style="stop-color:#D0D2D3"/>
	</linearGradient>
	<path fill="url(#SVGID_16_)" d="M678.711,544.813c-0.908,0.732-1.36,1.699-1.36,2.895c0,1.189,0.452,2.152,1.36,2.887
		c0.009,0,0.021,0.008,0.037,0.023l-0.049-0.049c0.206,0.164,0.412,0.309,0.619,0.434c0.692,0.379,1.502,0.598,2.426,0.656h0.396
		c0.132-0.025,0.229-0.072,0.291-0.143c0.062-0.07,0.109-0.152,0.142-0.248c0.033-0.094,0.06-0.195,0.082-0.303
		c0.02-0.107,0.049-0.205,0.085-0.291c0.038-0.086,0.092-0.16,0.162-0.223c0.069-0.062,0.176-0.098,0.314-0.105
		c0.043,0,0.062,0.016,0.062,0.049l-0.013,3.33h-1.076h-0.149l-0.396-0.012c-1.906-0.092-3.446-0.641-4.618-1.646
		c-1.278-1.107-1.919-2.57-1.919-4.395c0-0.99,0.229-1.912,0.681-2.76c0.472-0.852,1.122-1.564,1.957-2.143
		c0.595-0.396,1.222-0.682,1.882-0.855c0.396-0.105,0.802-0.172,1.22-0.197c0.416-0.023,0.863-0.045,1.343-0.062h1.076v2.068v1.262
		c0,0.033-0.012,0.049-0.037,0.049c-0.14-0.006-0.247-0.039-0.321-0.098c-0.074-0.057-0.127-0.133-0.161-0.223
		c-0.032-0.092-0.061-0.188-0.081-0.291c-0.02-0.104-0.047-0.201-0.08-0.297s-0.082-0.18-0.148-0.254s-0.161-0.125-0.284-0.148
		c-0.742-0.033-1.396,0.053-1.957,0.26S679.141,544.466,678.711,544.813z"/>
	<linearGradient id="SVGID_17_" gradientUnits="userSpaceOnUse" x1="685.3955" y1="545.9385" x2="691.4629" y2="545.9385">
		<stop  offset="0" style="stop-color:#FFFFFF"/>
		<stop  offset="1" style="stop-color:#D0D2D3"/>
	</linearGradient>
	<path fill="url(#SVGID_17_)" d="M691.178,550.778c0.024,0.01,0.038,0.021,0.038,0.039v2.871v0.012h-0.72c-0.09,0-0.177,0-0.259,0
		c-0.083,0-0.17-0.004-0.26-0.012h-0.026c-1.436-0.074-2.528-0.439-3.279-1.102c-0.851-0.742-1.276-1.863-1.276-3.367v-8.406v-0.049
		v-0.484c0.01-0.461,0.126-0.83,0.347-1.105c0.225-0.277,0.472-0.49,0.743-0.639c0.313-0.174,0.673-0.293,1.077-0.359v2.945v0.533
		v7.182c0,0.973,0.236,1.682,0.705,2.129c0.446,0.42,1.145,0.643,2.094,0.668c0.132-0.033,0.22-0.096,0.266-0.186
		c0.045-0.092,0.08-0.184,0.104-0.279c0.025-0.094,0.064-0.18,0.119-0.26C690.903,550.831,691.013,550.788,691.178,550.778z
		 M688.157,541.581h0.26c0.157,0.01,0.31,0.014,0.458,0.014h0.582c0.438,0.008,0.788,0.119,1.053,0.334
		c0.264,0.213,0.466,0.449,0.607,0.705c0.164,0.297,0.28,0.635,0.346,1.016h-2.811h-0.507L688.157,541.581z"/>
	<linearGradient id="SVGID_18_" gradientUnits="userSpaceOnUse" x1="692.9678" y1="545.2891" x2="698.0781" y2="545.2891">
		<stop  offset="0" style="stop-color:#FFFFFF"/>
		<stop  offset="1" style="stop-color:#D0D2D3"/>
	</linearGradient>
	<path fill="url(#SVGID_18_)" d="M696.601,551.263c0.008,0.404,0.052,0.717,0.131,0.936c0.078,0.217,0.174,0.385,0.287,0.5
		c0.112,0.115,0.232,0.193,0.36,0.236c0.13,0.041,0.248,0.086,0.356,0.135c0.108,0.051,0.195,0.119,0.263,0.211
		c0.067,0.09,0.092,0.238,0.074,0.445h-5.1c-0.017-0.207,0.009-0.355,0.075-0.445c0.065-0.092,0.153-0.158,0.262-0.205
		c0.108-0.045,0.227-0.09,0.355-0.135c0.13-0.047,0.251-0.125,0.363-0.236c0.111-0.111,0.208-0.275,0.287-0.494
		s0.123-0.529,0.131-0.936v-9.619c0.427,0.01,0.804,0.154,1.132,0.434c0.139,0.123,0.275,0.281,0.406,0.471
		c0.132,0.189,0.247,0.428,0.346,0.719c0.098,0.287,0.172,0.629,0.222,1.021c0.049,0.391,0.064,0.85,0.049,1.379V551.263z
		 M696.563,540.491c-0.346-0.057-0.656-0.156-0.936-0.297c-0.245-0.115-0.481-0.277-0.708-0.488
		c-0.226-0.211-0.375-0.488-0.449-0.836v-2.018c0.336-0.008,0.646,0.037,0.924,0.137c0.123,0.039,0.244,0.102,0.363,0.18
		c0.117,0.078,0.23,0.174,0.338,0.289c0.106,0.115,0.202,0.258,0.283,0.422c0.081,0.166,0.143,0.359,0.185,0.582v0.123V540.491z"/>
	<linearGradient id="SVGID_19_" gradientUnits="userSpaceOnUse" x1="699.4717" y1="547.6787" x2="711.6787" y2="547.6787">
		<stop  offset="0" style="stop-color:#FFFFFF"/>
		<stop  offset="1" style="stop-color:#D0D2D3"/>
	</linearGradient>
	<path fill="url(#SVGID_19_)" d="M699.472,547.659c0-0.824,0.157-1.621,0.471-2.389c0.306-0.75,0.76-1.432,1.362-2.043
		c0.578-0.594,1.23-1.043,1.956-1.35c0.718-0.305,1.49-0.457,2.315-0.457c0.842,0,1.621,0.152,2.34,0.457
		c0.751,0.314,1.407,0.764,1.969,1.35c0.585,0.602,1.03,1.279,1.337,2.031c0.305,0.742,0.457,1.543,0.457,2.4
		c0,0.859-0.152,1.668-0.457,2.428c-0.314,0.775-0.76,1.451-1.337,2.029c-0.562,0.588-1.218,1.035-1.969,1.35
		c-0.743,0.314-1.523,0.471-2.34,0.471c-0.802,0-1.572-0.156-2.315-0.471c-0.726-0.305-1.378-0.756-1.956-1.35
		c-0.603-0.602-1.057-1.283-1.362-2.041C699.629,549.306,699.472,548.501,699.472,547.659z M701.726,547.636
		c0,1.162,0.375,2.152,1.127,2.971c0.76,0.826,1.667,1.238,2.724,1.238c1.063,0,1.972-0.412,2.724-1.238
		c0.76-0.809,1.139-1.799,1.139-2.971c0-1.156-0.376-2.145-1.127-2.971c-0.759-0.809-1.672-1.215-2.735-1.215
		c-1.057,0-1.964,0.406-2.724,1.215C702.101,545.491,701.726,546.479,701.726,547.636z"/>
	<linearGradient id="SVGID_20_" gradientUnits="userSpaceOnUse" x1="712.3057" y1="547.5791" x2="725.4473" y2="547.5791">
		<stop  offset="0" style="stop-color:#FFFFFF"/>
		<stop  offset="1" style="stop-color:#D0D2D3"/>
	</linearGradient>
	<path fill="url(#SVGID_20_)" d="M712.312,553.726c-0.018-0.207,0.007-0.352,0.072-0.439c0.066-0.086,0.149-0.154,0.248-0.203
		s0.212-0.096,0.342-0.137c0.127-0.041,0.245-0.113,0.352-0.217c0.108-0.104,0.2-0.258,0.278-0.465
		c0.078-0.205,0.127-0.498,0.144-0.879v-4.244c0-1.75,0.469-3.143,1.41-4.174c0.934-1.023,2.179-1.535,3.739-1.535
		c1.552,0,2.794,0.512,3.727,1.535c0.925,1.023,1.387,2.414,1.387,4.174v4.295c0.016,0.363,0.065,0.643,0.148,0.842
		c0.082,0.197,0.177,0.348,0.285,0.451c0.106,0.104,0.222,0.176,0.347,0.217c0.122,0.041,0.235,0.088,0.339,0.137
		c0.104,0.049,0.185,0.119,0.242,0.211c0.058,0.09,0.083,0.234,0.074,0.432h-2.203h-2.799c-0.016-0.197,0.008-0.342,0.069-0.432
		c0.061-0.092,0.142-0.162,0.24-0.211s0.209-0.094,0.328-0.131c0.12-0.037,0.235-0.105,0.347-0.203
		c0.112-0.1,0.207-0.244,0.285-0.436c0.077-0.188,0.129-0.461,0.155-0.814v-4.754c0-0.951-0.276-1.727-0.83-2.328
		c-0.561-0.594-1.276-0.891-2.142-0.891c-0.867,0-1.584,0.297-2.155,0.891c-0.561,0.611-0.842,1.387-0.842,2.328v4.914
		c0.034,0.312,0.093,0.557,0.175,0.73c0.083,0.172,0.18,0.303,0.29,0.389c0.111,0.088,0.226,0.148,0.341,0.188
		c0.115,0.035,0.221,0.08,0.314,0.129c0.096,0.049,0.17,0.121,0.225,0.209c0.053,0.094,0.075,0.232,0.068,0.422H712.312z"/>
	<linearGradient id="SVGID_21_" gradientUnits="userSpaceOnUse" x1="730.5518" y1="544.8242" x2="746.6016" y2="544.8242">
		<stop  offset="0" style="stop-color:#FFFFFF"/>
		<stop  offset="1" style="stop-color:#D0D2D3"/>
	</linearGradient>
	<path fill="url(#SVGID_21_)" d="M746.473,536.036c0.11,0.057,0.15,0.141,0.117,0.246c-0.033,0.107-0.127,0.238-0.285,0.391
		c-0.155,0.154-0.337,0.32-0.545,0.502c-0.37,0.312-0.767,0.557-1.188,0.729c-0.419,0.176-0.825,0.254-1.211,0.236h0.011h-3.664
		v13.012c0.016,0.412,0.068,0.73,0.155,0.953c0.085,0.223,0.188,0.391,0.309,0.508c0.119,0.115,0.248,0.195,0.385,0.24
		c0.135,0.047,0.26,0.096,0.37,0.148c0.111,0.055,0.203,0.129,0.273,0.223c0.068,0.096,0.098,0.256,0.08,0.477h-2.426h-1.437
		c-0.19,0-0.376,0-0.558,0s-0.349,0-0.501-0.006c-0.153-0.004-0.283-0.006-0.391-0.006s-0.177,0-0.211,0
		c-0.016-0.223,0.012-0.381,0.081-0.477c0.07-0.094,0.162-0.166,0.273-0.217c0.11-0.049,0.233-0.096,0.365-0.143
		c0.132-0.045,0.259-0.123,0.383-0.234s0.231-0.273,0.322-0.488s0.144-0.525,0.16-0.93V538.14h-1.932h-4.047
		c-0.339,0-0.564-0.027-0.681-0.086c-0.115-0.059-0.155-0.141-0.117-0.248c0.037-0.107,0.134-0.234,0.289-0.385
		c0.158-0.148,0.344-0.316,0.559-0.508c0.37-0.312,0.77-0.557,1.193-0.73c0.425-0.172,0.828-0.25,1.208-0.232
		c0.148,0,0.434,0,0.854,0c0.422,0,0.924,0,1.511,0c0.586,0,1.231,0,1.937,0c0.708,0,1.419,0,2.137,0h5.57
		C746.145,535.95,746.361,535.978,746.473,536.036z"/>
	<linearGradient id="SVGID_22_" gradientUnits="userSpaceOnUse" x1="743.793" y1="547.6787" x2="755.999" y2="547.6787">
		<stop  offset="0" style="stop-color:#FFFFFF"/>
		<stop  offset="1" style="stop-color:#D0D2D3"/>
	</linearGradient>
	<path fill="url(#SVGID_22_)" d="M743.793,547.659c0-0.824,0.156-1.621,0.47-2.389c0.306-0.75,0.76-1.432,1.362-2.043
		c0.577-0.594,1.229-1.043,1.956-1.35c0.718-0.305,1.489-0.457,2.315-0.457c0.842,0,1.621,0.152,2.339,0.457
		c0.751,0.314,1.408,0.764,1.969,1.35c0.585,0.602,1.031,1.279,1.337,2.031c0.305,0.742,0.458,1.543,0.458,2.4
		c0,0.859-0.153,1.668-0.458,2.428c-0.313,0.775-0.759,1.451-1.337,2.029c-0.561,0.588-1.218,1.035-1.969,1.35
		c-0.743,0.314-1.523,0.471-2.339,0.471c-0.802,0-1.573-0.156-2.315-0.471c-0.727-0.305-1.379-0.756-1.956-1.35
		c-0.603-0.602-1.057-1.283-1.362-2.041C743.949,549.306,743.793,548.501,743.793,547.659z M746.045,547.636
		c0,1.162,0.375,2.152,1.128,2.971c0.759,0.826,1.667,1.238,2.724,1.238c1.062,0,1.971-0.412,2.724-1.238
		c0.759-0.809,1.139-1.799,1.139-2.971c0-1.156-0.376-2.145-1.127-2.971c-0.76-0.809-1.673-1.215-2.735-1.215
		c-1.057,0-1.965,0.406-2.724,1.215C746.42,545.491,746.045,546.479,746.045,547.636z"/>
	<linearGradient id="SVGID_23_" gradientUnits="userSpaceOnUse" x1="757.584" y1="547.6787" x2="769.79" y2="547.6787">
		<stop  offset="0" style="stop-color:#FFFFFF"/>
		<stop  offset="1" style="stop-color:#D0D2D3"/>
	</linearGradient>
	<path fill="url(#SVGID_23_)" d="M757.584,547.659c0-0.824,0.156-1.621,0.47-2.389c0.306-0.75,0.76-1.432,1.362-2.043
		c0.577-0.594,1.229-1.043,1.956-1.35c0.718-0.305,1.489-0.457,2.314-0.457c0.841,0,1.622,0.152,2.34,0.457
		c0.751,0.314,1.407,0.764,1.968,1.35c0.588,0.602,1.033,1.279,1.337,2.031c0.308,0.742,0.459,1.543,0.459,2.4
		c0,0.859-0.151,1.668-0.459,2.428c-0.313,0.775-0.759,1.451-1.337,2.029c-0.561,0.588-1.217,1.035-1.968,1.35
		c-0.743,0.314-1.521,0.471-2.34,0.471c-0.8,0-1.572-0.156-2.314-0.471c-0.727-0.305-1.379-0.756-1.956-1.35
		c-0.603-0.602-1.057-1.283-1.362-2.041C757.74,549.306,757.584,548.501,757.584,547.659z M759.836,547.636
		c0,1.162,0.377,2.152,1.127,2.971c0.759,0.826,1.667,1.238,2.724,1.238c1.065,0,1.974-0.412,2.723-1.238
		c0.76-0.809,1.14-1.799,1.14-2.971c0-1.156-0.375-2.145-1.126-2.971c-0.76-0.809-1.671-1.215-2.736-1.215
		c-1.057,0-1.965,0.406-2.724,1.215C760.213,545.491,759.836,546.479,759.836,547.636z"/>
	<linearGradient id="SVGID_24_" gradientUnits="userSpaceOnUse" x1="771.0596" y1="544.9199" x2="776.0684" y2="544.9199">
		<stop  offset="0" style="stop-color:#FFFFFF"/>
		<stop  offset="1" style="stop-color:#D0D2D3"/>
	</linearGradient>
	<path fill="url(#SVGID_24_)" d="M774.805,552.327c0.082,0.189,0.177,0.332,0.284,0.428c0.107,0.094,0.22,0.164,0.341,0.203
		c0.119,0.043,0.229,0.084,0.327,0.131c0.1,0.045,0.178,0.113,0.236,0.205c0.056,0.09,0.082,0.234,0.073,0.432h-2.451
		c-0.312,0-0.619,0-0.917,0c-0.297,0-0.563-0.002-0.797-0.006c-0.235-0.004-0.43-0.006-0.582-0.006c-0.153,0-0.238,0-0.255,0
		c-0.017-0.189,0.005-0.33,0.062-0.42c0.058-0.092,0.134-0.16,0.229-0.205c0.095-0.047,0.2-0.088,0.315-0.123
		c0.115-0.039,0.229-0.1,0.34-0.188c0.112-0.086,0.208-0.211,0.291-0.377c0.082-0.164,0.142-0.404,0.174-0.719v-15.561
		c0.403-0.033,0.767,0.059,1.09,0.273c0.132,0.088,0.265,0.215,0.396,0.369c0.132,0.158,0.247,0.359,0.346,0.602
		c0.1,0.244,0.18,0.537,0.241,0.879s0.093,0.744,0.093,1.207v12.07C774.667,551.868,774.722,552.138,774.805,552.327z"/>
</g>
<g>
	
		<linearGradient id="SVGID_25_" gradientUnits="userSpaceOnUse" x1="765.6445" y1="277.7368" x2="808.3828" y2="277.7368" gradientTransform="matrix(0 1.7627 -0.5313 0 746.2548 -985.7871)">
		<stop  offset="0" style="stop-color:#006838"/>
		<stop  offset="1" style="stop-color:#8BC53F"/>
	</linearGradient>
	<rect x="596.305" y="363.814" fill="url(#SVGID_25_)" width="4.777" height="75.334"/>
	
		<linearGradient id="SVGID_26_" gradientUnits="userSpaceOnUse" x1="756.1133" y1="247.3013" x2="811.0918" y2="247.3013" gradientTransform="matrix(0 1.8836 -0.5313 0 746.2548 -1090.623)">
		<stop  offset="0" style="stop-color:#006838"/>
		<stop  offset="1" style="stop-color:#8BC53F"/>
	</linearGradient>
	<rect x="611.807" y="333.592" fill="url(#SVGID_26_)" width="6.113" height="103.557"/>
	
		<linearGradient id="SVGID_27_" gradientUnits="userSpaceOnUse" x1="762.0664" y1="215.625" x2="817.0459" y2="215.625" gradientTransform="matrix(0 2.3897 -0.5313 0 746.2548 -1517.3457)">
		<stop  offset="0" style="stop-color:#006838"/>
		<stop  offset="1" style="stop-color:#8BC53F"/>
	</linearGradient>
	<rect x="628.637" y="303.764" fill="url(#SVGID_27_)" width="6.113" height="131.385"/>
	
		<linearGradient id="SVGID_28_" gradientUnits="userSpaceOnUse" x1="553.5811" y1="411.0479" x2="599.8867" y2="411.0479" gradientTransform="matrix(0.7605 0 0 0.5313 144.8682 147.8136)">
		<stop  offset="0" style="stop-color:#8BC53F"/>
		<stop  offset="1" style="stop-color:#006838"/>
	</linearGradient>
	<rect x="565.866" y="363.814" fill="url(#SVGID_28_)" width="35.216" height="4.777"/>
	
		<linearGradient id="SVGID_29_" gradientUnits="userSpaceOnUse" x1="557.6221" y1="354.8657" x2="612.6035" y2="354.8657" gradientTransform="matrix(0.9408 0 0 0.5313 41.583 147.8136)">
		<stop  offset="0" style="stop-color:#8BC53F"/>
		<stop  offset="1" style="stop-color:#006838"/>
	</linearGradient>
	<rect x="566.193" y="333.297" fill="url(#SVGID_29_)" width="51.727" height="6.113"/>
	
		<linearGradient id="SVGID_30_" gradientUnits="userSpaceOnUse" x1="555.4624" y1="299.3047" x2="614.6807" y2="299.3047" gradientTransform="matrix(1.1577 0 0 0.5313 -76.8652 147.8136)">
		<stop  offset="0" style="stop-color:#8BC53F"/>
		<stop  offset="1" style="stop-color:#006838"/>
	</linearGradient>
	<rect x="566.193" y="303.777" fill="url(#SVGID_30_)" width="68.557" height="6.113"/>
	<linearGradient id="SVGID_31_" gradientUnits="userSpaceOnUse" x1="616.7539" y1="416.6992" x2="663.481" y2="463.4263">
		<stop  offset="0" style="stop-color:#8BC53F"/>
		<stop  offset="1" style="stop-color:#8BC53F"/>
	</linearGradient>
	<path fill="url(#SVGID_31_)" d="M593.305,440.148c0,0,36.604-12.721,47.389-12.721s43.484,11.75,46.117,12.5s-40.199-5-45.533-5"/>
	
		<radialGradient id="SVGID_32_" cx="576.5234" cy="382.7012" r="10.5059" gradientTransform="matrix(0 1 1 0 173.9805 -210.3203)" gradientUnits="userSpaceOnUse">
		<stop  offset="0" style="stop-color:#FFFFFF"/>
		<stop  offset="0.9632" style="stop-color:#67CA32"/>
	</radialGradient>
	<path fill="url(#SVGID_32_)" d="M546.176,366.203c0-5.803,4.704-10.506,10.506-10.506s10.506,4.703,10.506,10.506
		s-4.704,10.506-10.506,10.506S546.176,372.006,546.176,366.203z M556.682,372.906c1.851,0,3.526-0.751,4.739-1.964
		s1.963-2.889,1.963-4.739c0-3.702-3.001-6.703-6.702-6.703c-3.702,0-6.703,3.001-6.703,6.703
		C549.979,369.904,552.979,372.906,556.682,372.906z"/>
	
		<radialGradient id="SVGID_33_" cx="546.9448" cy="382.7012" r="10.5056" gradientTransform="matrix(0 1 1 0 173.9805 -210.3203)" gradientUnits="userSpaceOnUse">
		<stop  offset="0" style="stop-color:#FFFFFF"/>
		<stop  offset="0.9632" style="stop-color:#67CA32"/>
	</radialGradient>
	<path fill="url(#SVGID_33_)" d="M546.176,336.624c0-5.802,4.704-10.505,10.506-10.505s10.506,4.703,10.506,10.505
		c0,5.803-4.704,10.506-10.506,10.506S546.176,342.427,546.176,336.624z M556.682,343.327c1.851,0,3.526-0.75,4.739-1.963
		s1.963-2.889,1.963-4.74c0-3.702-3.001-6.703-6.702-6.703c-3.702,0-6.703,3.001-6.703,6.703S552.979,343.327,556.682,343.327z"/>
	
		<radialGradient id="SVGID_34_" cx="517.1543" cy="382.7012" r="10.5059" gradientTransform="matrix(0 1 1 0 173.9805 -210.3203)" gradientUnits="userSpaceOnUse">
		<stop  offset="0" style="stop-color:#FFFFFF"/>
		<stop  offset="0.9632" style="stop-color:#67CA32"/>
	</radialGradient>
	<path fill="url(#SVGID_34_)" d="M546.176,306.834c0-5.802,4.704-10.506,10.506-10.506s10.506,4.704,10.506,10.506
		c0,5.803-4.704,10.506-10.506,10.506S546.176,312.637,546.176,306.834z M556.682,313.537c1.851,0,3.526-0.751,4.739-1.963
		c1.213-1.214,1.963-2.89,1.963-4.74c0-3.702-3.001-6.703-6.702-6.703c-3.702,0-6.703,3.001-6.703,6.703
		C549.979,310.535,552.979,313.537,556.682,313.537z"/>
	
		<linearGradient id="SVGID_35_" gradientUnits="userSpaceOnUse" x1="765.6445" y1="357.6123" x2="808.3828" y2="357.6123" gradientTransform="matrix(0 1.7627 0.5313 0 491.3075 -985.7871)">
		<stop  offset="0" style="stop-color:#006838"/>
		<stop  offset="1" style="stop-color:#8BC53F"/>
	</linearGradient>
	<rect x="678.918" y="363.814" fill="url(#SVGID_35_)" width="4.777" height="75.334"/>
	
		<linearGradient id="SVGID_36_" gradientUnits="userSpaceOnUse" x1="756.1133" y1="327.1772" x2="811.0918" y2="327.1772" gradientTransform="matrix(0 1.8836 0.5313 0 491.3075 -1090.623)">
		<stop  offset="0" style="stop-color:#006838"/>
		<stop  offset="1" style="stop-color:#8BC53F"/>
	</linearGradient>
	<rect x="662.08" y="333.592" fill="url(#SVGID_36_)" width="6.113" height="103.557"/>
	
		<linearGradient id="SVGID_37_" gradientUnits="userSpaceOnUse" x1="762.0664" y1="295.5005" x2="817.0459" y2="295.5005" gradientTransform="matrix(0 2.3897 0.5313 0 491.3075 -1517.3457)">
		<stop  offset="0" style="stop-color:#006838"/>
		<stop  offset="1" style="stop-color:#8BC53F"/>
	</linearGradient>
	<rect x="645.25" y="303.764" fill="url(#SVGID_37_)" width="6.113" height="131.385"/>
	
		<linearGradient id="SVGID_38_" gradientUnits="userSpaceOnUse" x1="497.7793" y1="411.0479" x2="544.084" y2="411.0479" gradientTransform="matrix(-0.7605 0 0 0.5313 1092.6943 147.8136)">
		<stop  offset="0" style="stop-color:#8BC53F"/>
		<stop  offset="1" style="stop-color:#006838"/>
	</linearGradient>
	<rect x="678.918" y="363.814" fill="url(#SVGID_38_)" width="35.215" height="4.777"/>
	
		<linearGradient id="SVGID_39_" gradientUnits="userSpaceOnUse" x1="512.5137" y1="354.8657" x2="567.4951" y2="354.8657" gradientTransform="matrix(-0.9408 0 0 0.5313 1195.9795 147.8136)">
		<stop  offset="0" style="stop-color:#8BC53F"/>
		<stop  offset="1" style="stop-color:#006838"/>
	</linearGradient>
	<rect x="662.08" y="333.297" fill="url(#SVGID_39_)" width="51.727" height="6.113"/>
	
		<linearGradient id="SVGID_40_" gradientUnits="userSpaceOnUse" x1="518.8047" y1="299.3047" x2="578.0229" y2="299.3047" gradientTransform="matrix(-1.1577 0 0 0.5313 1314.4268 147.8136)">
		<stop  offset="0" style="stop-color:#8BC53F"/>
		<stop  offset="1" style="stop-color:#006838"/>
	</linearGradient>
	<rect x="645.25" y="303.777" fill="url(#SVGID_40_)" width="68.557" height="6.113"/>
	
		<radialGradient id="SVGID_41_" cx="576.5234" cy="340.2637" r="10.5059" gradientTransform="matrix(0 1 -1 0 1063.582 -210.3203)" gradientUnits="userSpaceOnUse">
		<stop  offset="0" style="stop-color:#FFFFFF"/>
		<stop  offset="0.9632" style="stop-color:#67CA32"/>
	</radialGradient>
	<path fill="url(#SVGID_41_)" d="M723.318,376.709c-5.803,0-10.506-4.703-10.506-10.506s4.703-10.506,10.506-10.506
		c5.801,0,10.506,4.703,10.506,10.506S729.119,376.709,723.318,376.709z M730.021,366.203c0-3.702-3.002-6.703-6.703-6.703
		s-6.703,3.001-6.703,6.703c0,1.851,0.75,3.526,1.963,4.739s2.889,1.964,4.74,1.964C727.02,372.906,730.021,369.904,730.021,366.203
		z"/>
	
		<radialGradient id="SVGID_42_" cx="546.9448" cy="340.2637" r="10.5056" gradientTransform="matrix(0 1 -1 0 1063.582 -210.3203)" gradientUnits="userSpaceOnUse">
		<stop  offset="0" style="stop-color:#FFFFFF"/>
		<stop  offset="0.9632" style="stop-color:#67CA32"/>
	</radialGradient>
	<path fill="url(#SVGID_42_)" d="M723.318,347.13c-5.803,0-10.506-4.703-10.506-10.506c0-5.802,4.703-10.505,10.506-10.505
		c5.801,0,10.506,4.703,10.506,10.505C733.824,342.427,729.119,347.13,723.318,347.13z M730.021,336.624
		c0-3.702-3.002-6.703-6.703-6.703s-6.703,3.001-6.703,6.703c0,1.852,0.75,3.527,1.963,4.74s2.889,1.963,4.74,1.963
		C727.02,343.327,730.021,340.326,730.021,336.624z"/>
	
		<radialGradient id="SVGID_43_" cx="517.1543" cy="340.2637" r="10.5059" gradientTransform="matrix(0 1 -1 0 1063.582 -210.3203)" gradientUnits="userSpaceOnUse">
		<stop  offset="0" style="stop-color:#FFFFFF"/>
		<stop  offset="0.9632" style="stop-color:#67CA32"/>
	</radialGradient>
	<path fill="url(#SVGID_43_)" d="M723.318,317.34c-5.803,0-10.506-4.703-10.506-10.506c0-5.802,4.703-10.506,10.506-10.506
		c5.801,0,10.506,4.704,10.506,10.506C733.824,312.637,729.119,317.34,723.318,317.34z M730.021,306.834
		c0-3.702-3.002-6.703-6.703-6.703s-6.703,3.001-6.703,6.703c0,1.851,0.75,3.526,1.963,4.74c1.213,1.212,2.889,1.963,4.74,1.963
		C727.02,313.537,730.021,310.535,730.021,306.834z"/>
</g>
</svg>
